# xmcd
#
# Track frame offsets:
#	182
#	18397
#	28572
#	42462
#	56017
#	78492
#	92422
#	103605
#	121127
#	134227
#
# Disc length: 1912 seconds
#
# Revision: 0
# Processed by: cddbd v1.5.1PL0 Copyright (c) Steve Scherf et al.
# Submitted via: dBpowerAMP V4.0
#
DISCID=8007760a
DTITLE=John Lockhart - Memories of a Mountain Man
DYEAR=1900
DGENRE=Alt-Country
TTITLE0=Memories of a Mountain Man
TTITLE1=We Came Down
TTITLE2=Rock Right Back
TTITLE3=Thank You Josie
TTITLE4=Country Lullaby
TTITLE5=Let's Sing About Love
TTITLE6=Country Soul
TTITLE7=Raindrops Fall from Heaven
TTITLE8=This Gift of Love
TTITLE9=Headin' for the N.C. Shore
EXTD=
EXTT0=
EXTT1=
EXTT2=
EXTT3=
EXTT4=
EXTT5=
EXTT6=
EXTT7=
EXTT8=
EXTT9=
PLAYORDER=
